# xmcd CD database file
#
# Track frame offsets:
#	150
#	15369
#	34763
#	52101
#	66301
#	80378
#	99151
#	113386
#	125360
#	137544
#	151103
#	167277
#	179203
#
# Disc length: 2587 seconds
#
# Revision: 1
# Processed by: cddbd v1.5.2PL0 Copyright (c) Steve Scherf et al.
# Submitted via: CDex 1.51
#
DISCID=970a190d
DTITLE=Maira - Maira
DYEAR=2011
DGENRE=Samba
TTITLE0=O Voo da Mosca
TTITLE1=O Show Tem Que Continuar
TTITLE2=Maracatu Nacao do Amor
TTITLE3=Corselet
TTITLE4=As Voltas part. Qinho
TTITLE5=Alo?
TTITLE6=Recado
TTITLE7=Disritmia part. Martinho da Vila
TTITLE8=Monsieur Binot part. Joyce
TTITLE9=Só o Tempo
TTITLE10=Se Queres Saber
TTITLE11=Mambembe
TTITLE12=Se Joga
EXTD=YEAR: 2011
EXTT0=
EXTT1=
EXTT2=
EXTT3=
EXTT4=
EXTT5=
EXTT6=
EXTT7=
EXTT8=
EXTT9=
EXTT10=
EXTT11=
EXTT12=
PLAYORDER=
